<svg width="15" height="10" viewBox="0 0 15 10" fill="none" xmlns="http://www.w3.org/2000/svg">
<path d="M7.32875 0.973317C7.86175 1.39109 8.28371 1.90665 8.59463 2.51998C8.90554 3.15109 9.061 3.82221 9.061 4.53332C9.061 5.24443 8.90554 5.91554 8.59463 6.54665C8.28371 7.15998 7.86175 7.67554 7.32875 8.09332C6.79575 7.67554 6.37379 7.15998 6.06288 6.54665C5.75196 5.91554 5.5965 5.24443 5.5965 4.53332C5.5965 3.82221 5.75196 3.15109 6.06288 2.51998C6.37379 1.90665 6.79575 1.39109 7.32875 0.973317ZM6.75577 0.58665C6.18724 1.06665 5.74307 1.64443 5.42327 2.31998C5.09459 3.02221 4.93025 3.75998 4.93025 4.53332C4.93025 5.30665 5.09459 6.04443 5.42327 6.74665C5.74307 7.42221 6.1828 7.99998 6.74245 8.47998C6.05843 8.87109 5.32112 9.06665 4.5305 9.06665C3.71323 9.06665 2.94927 8.85776 2.2386 8.43998C1.55458 8.03998 1.0127 7.50221 0.61295 6.82665C0.204317 6.11554 0 5.35109 0 4.53332C0 3.71554 0.204317 2.95109 0.61295 2.23998C1.0127 1.56443 1.55458 1.02665 2.2386 0.62665C2.94927 0.208873 3.71323 -1.62125e-05 4.5305 -1.62125e-05C5.32112 -1.62125e-05 6.06288 0.195539 6.75577 0.58665ZM7.91505 8.47998C8.4747 7.99998 8.91442 7.42221 9.23423 6.74665C9.56291 6.04443 9.72725 5.30665 9.72725 4.53332C9.72725 3.75998 9.56291 3.02221 9.23423 2.31998C8.91442 1.64443 8.47026 1.06665 7.90173 0.58665C8.59463 0.195539 9.33638 -1.62125e-05 10.127 -1.62125e-05C10.9443 -1.62125e-05 11.7082 0.208873 12.4189 0.62665C13.1029 1.02665 13.6448 1.56443 14.0445 2.23998C14.4532 2.95109 14.6575 3.71554 14.6575 4.53332C14.6575 5.35109 14.4532 6.11554 14.0445 6.82665C13.6448 7.50221 13.1029 8.03998 12.4189 8.43998C11.7082 8.85776 10.9443 9.06665 10.127 9.06665C9.33638 9.06665 8.59907 8.87109 7.91505 8.47998Z" fill="#9CA3AF"/>
</svg>
