<svg width="12" height="14" viewBox="0 0 12 14" fill="none" xmlns="http://www.w3.org/2000/svg">
<path d="M11.3296 4.32C11.6405 4.88 11.7071 5.62222 11.5295 6.54667C11.2896 7.74667 10.7744 8.63111 9.98376 9.2C9.27309 9.70667 8.34034 9.96 7.18551 9.96H6.85238C6.71913 9.96 6.60365 10.0022 6.50593 10.0867C6.40821 10.1711 6.34603 10.28 6.31938 10.4133L5.85301 13.3333C5.83524 13.4578 5.77528 13.5644 5.67312 13.6533C5.57096 13.7422 5.4577 13.7867 5.33333 13.7867H3.09473C2.99701 13.7867 2.91706 13.7489 2.85488 13.6733C2.7927 13.5978 2.77049 13.5111 2.78826 13.4133L2.89486 12.6667H3.90756L4.54716 8.65333H5.46658C7.03005 8.65333 8.31147 8.28889 9.31084 7.56C10.3102 6.83111 10.9831 5.75111 11.3296 4.32ZM9.35748 0.933333C9.60621 1.21778 9.77056 1.53111 9.85051 1.87333C9.93046 2.21556 9.93046 2.63111 9.85051 3.12L9.81053 3.36C9.57068 4.60444 9.05989 5.52444 8.27816 6.12C7.52307 6.69778 6.48816 6.98667 5.17343 6.98667H3.92088C3.71656 6.98667 3.53001 7.04889 3.36123 7.17333C3.19245 7.29778 3.08141 7.45778 3.02811 7.65333H3.01478L2.38851 11.5867H0.0299812C0.00333125 11.5867 -0.00555208 11.5733 0.00333125 11.5467L1.73558 0.533333C1.76223 0.382222 1.8333 0.255555 1.94878 0.153334C2.06426 0.0511112 2.20196 0 2.36186 0H6.34603C7.81178 0 8.8156 0.31111 9.35748 0.933333Z" fill="#9CA3AF"/>
</svg>
