<svg width="15" height="11" viewBox="0 0 15 11" fill="none" xmlns="http://www.w3.org/2000/svg">
<path d="M0 0H14.6575V1.33333H0V0ZM0 9.33333H14.6575V10.6667H0V9.33333ZM12.4056 7.28L12.2857 6.69333H10.9931L10.7799 7.26667L9.74057 7.28L11.233 3.70667C11.3218 3.50222 11.4728 3.4 11.686 3.4H12.5255L13.325 7.28H12.4056ZM11.2863 5.90667H12.1258L11.806 4.45333L11.2863 5.90667ZM4.5838 3.4H5.62315L4.01083 7.28H2.94482C2.58949 5.89333 2.32743 4.86667 2.15865 4.2C2.10535 3.98667 1.98987 3.85111 1.8122 3.79333C1.63453 3.73556 1.34138 3.64 0.93275 3.50667V3.4H2.59838C2.89153 3.4 3.06475 3.54222 3.11805 3.82667L3.53113 6.02667L4.5838 3.4ZM7.06225 3.4L6.2361 7.28H5.23672L6.06288 3.4H7.06225ZM9.08765 3.33333C9.2209 3.33333 9.37636 3.35111 9.55402 3.38667C9.71393 3.42222 9.85162 3.46222 9.9671 3.50667L9.79387 4.32C9.49184 4.19556 9.22978 4.13333 9.0077 4.13333C8.82115 4.13333 8.66791 4.16667 8.54799 4.23333C8.42806 4.3 8.3681 4.37556 8.3681 4.46C8.3681 4.54444 8.41696 4.62667 8.51468 4.70667C8.57686 4.75111 8.69678 4.82222 8.87445 4.92C9.02547 5.00889 9.14539 5.08 9.23423 5.13333C9.45631 5.27556 9.61177 5.42667 9.7006 5.58667C9.76278 5.71111 9.78943 5.86667 9.78055 6.05333C9.78055 6.27556 9.71615 6.48444 9.58734 6.68C9.45853 6.87556 9.2742 7.03111 9.03435 7.14667C8.75897 7.27111 8.43917 7.33333 8.07495 7.33333C7.81733 7.33333 7.61746 7.32 7.47533 7.29333C7.33319 7.26667 7.15108 7.21333 6.929 7.13333L7.11555 6.29333C7.33763 6.39111 7.51308 6.45556 7.64189 6.48667C7.7707 6.51778 7.92393 6.53333 8.1016 6.53333C8.27927 6.53333 8.43028 6.5 8.55465 6.43333C8.67902 6.36667 8.7412 6.27556 8.7412 6.16C8.7412 6.07111 8.71011 5.99778 8.64793 5.94C8.58574 5.88222 8.45693 5.79556 8.2615 5.68H8.24817C7.97279 5.52889 7.77292 5.39556 7.64855 5.28C7.44423 5.07556 7.34207 4.84444 7.34207 4.58667C7.34207 4.21333 7.5042 3.91111 7.82844 3.68C8.15268 3.44889 8.57242 3.33333 9.08765 3.33333Z" fill="#9CA3AF"/>
</svg>
