<svg width="13" height="13" viewBox="0 0 13 13" fill="none" xmlns="http://www.w3.org/2000/svg">
<path d="M1.16625 8.16667V1.16667H0V0H1.74937C1.91265 0 2.05066 0.0563889 2.16339 0.169167C2.27613 0.281944 2.3325 0.42 2.3325 0.583333V7.58333H9.58657L10.7528 2.91667H3.49875V1.75H11.4992C11.6625 1.75 11.8005 1.80639 11.9132 1.91917C12.026 2.03194 12.0823 2.17 12.0823 2.33333C12.0823 2.38 12.0746 2.42667 12.059 2.47333L10.6012 8.30667C10.5701 8.43889 10.5021 8.54583 10.3971 8.6275C10.2922 8.70917 10.1736 8.75 10.0414 8.75H1.74937C1.5861 8.75 1.44809 8.69361 1.33536 8.58083C1.22262 8.46806 1.16625 8.33 1.16625 8.16667ZM2.3325 12.25C2.12258 12.25 1.9282 12.1975 1.74937 12.0925C1.57055 11.9875 1.42866 11.8456 1.32369 11.6667C1.21873 11.4878 1.16625 11.2933 1.16625 11.0833C1.16625 10.8733 1.21873 10.6789 1.32369 10.5C1.42866 10.3211 1.57055 10.1792 1.74937 10.0742C1.9282 9.96917 2.12258 9.91667 2.3325 9.91667C2.54242 9.91667 2.7368 9.96917 2.91563 10.0742C3.09445 10.1792 3.23634 10.3211 3.34131 10.5C3.44627 10.6789 3.49875 10.8733 3.49875 11.0833C3.49875 11.2933 3.44627 11.4878 3.34131 11.6667C3.23634 11.8456 3.09445 11.9875 2.91563 12.0925C2.7368 12.1975 2.54242 12.25 2.3325 12.25ZM9.33 12.25C9.12008 12.25 8.9257 12.1975 8.74687 12.0925C8.56805 11.9875 8.42616 11.8456 8.32119 11.6667C8.21623 11.4878 8.16375 11.2933 8.16375 11.0833C8.16375 10.8733 8.21623 10.6789 8.32119 10.5C8.42616 10.3211 8.56805 10.1792 8.74687 10.0742C8.9257 9.96917 9.12008 9.91667 9.33 9.91667C9.53992 9.91667 9.7343 9.96917 9.91313 10.0742C10.092 10.1792 10.2338 10.3211 10.3388 10.5C10.4438 10.6789 10.4963 10.8733 10.4963 11.0833C10.4963 11.2933 10.4438 11.4878 10.3388 11.6667C10.2338 11.8456 10.092 11.9875 9.91313 12.0925C9.7343 12.1975 9.53992 12.25 9.33 12.25Z" fill="white"/>
</svg>
