<svg width="40" height="40" viewBox="0 0 40 40" fill="none" xmlns="http://www.w3.org/2000/svg">
<path d="M13.0351 22.9167V12.9167H11.3689V11.25H13.8683C14.1015 11.25 14.2987 11.3306 14.4598 11.4917C14.6209 11.6528 14.7014 11.85 14.7014 12.0833V22.0833H25.0655L26.7317 15.4167H16.3676V13.75H27.7981C28.0314 13.75 28.2286 13.8306 28.3896 13.9917C28.5507 14.1528 28.6312 14.35 28.6312 14.5833C28.6312 14.65 28.6201 14.7167 28.5979 14.7833L26.5151 23.1167C26.4707 23.3056 26.3735 23.4583 26.2235 23.575C26.0736 23.6917 25.9042 23.75 25.7153 23.75H13.8683C13.635 23.75 13.4378 23.6694 13.2768 23.5083C13.1157 23.3472 13.0351 23.15 13.0351 22.9167ZM14.7014 28.75C14.4015 28.75 14.1238 28.675 13.8683 28.525C13.6128 28.375 13.4101 28.1722 13.2601 27.9167C13.1101 27.6611 13.0351 27.3833 13.0351 27.0833C13.0351 26.7833 13.1101 26.5056 13.2601 26.25C13.4101 25.9944 13.6128 25.7917 13.8683 25.6417C14.1238 25.4917 14.4015 25.4167 14.7014 25.4167C15.0013 25.4167 15.279 25.4917 15.5345 25.6417C15.79 25.7917 15.9927 25.9944 16.1427 26.25C16.2927 26.5056 16.3676 26.7833 16.3676 27.0833C16.3676 27.3833 16.2927 27.6611 16.1427 27.9167C15.9927 28.1722 15.79 28.375 15.5345 28.525C15.279 28.675 15.0013 28.75 14.7014 28.75ZM24.6989 28.75C24.399 28.75 24.1213 28.675 23.8658 28.525C23.6103 28.375 23.4076 28.1722 23.2576 27.9167C23.1076 27.6611 23.0326 27.3833 23.0326 27.0833C23.0326 26.7833 23.1076 26.5056 23.2576 26.25C23.4076 25.9944 23.6103 25.7917 23.8658 25.6417C24.1213 25.4917 24.399 25.4167 24.6989 25.4167C24.9988 25.4167 25.2765 25.4917 25.532 25.6417C25.7875 25.7917 25.9902 25.9944 26.1402 26.25C26.2902 26.5056 26.3651 26.7833 26.3651 27.0833C26.3651 27.3833 26.2902 27.6611 26.1402 27.9167C25.9902 28.1722 25.7875 28.375 25.532 28.525C25.2765 28.675 24.9988 28.75 24.6989 28.75Z" fill="#4B5563"/>
</svg>
