<svg width="16" height="20" viewBox="0 0 16 20" fill="none" xmlns="http://www.w3.org/2000/svg">
<path d="M11.421 12.6017L13.9167 15.0983L13.0887 15.9267L10.5929 13.43C10.1342 13.7956 9.6327 14.0756 9.08845 14.27C8.5131 14.4722 7.9222 14.5733 7.31575 14.5733C6.3672 14.5733 5.48474 14.3361 4.66836 13.8617C3.87531 13.395 3.24943 12.765 2.7907 11.9717C2.30865 11.155 2.06763 10.2722 2.06763 9.32333C2.06763 8.37444 2.30865 7.49167 2.7907 6.675C3.24943 5.88167 3.87531 5.25556 4.66836 4.79667C5.48474 4.31444 6.3672 4.07333 7.31575 4.07333C8.2643 4.07333 9.14676 4.31444 9.96314 4.79667C10.7562 5.25556 11.386 5.88167 11.8525 6.675C12.3267 7.49167 12.5639 8.37444 12.5639 9.32333C12.5639 9.93 12.4628 10.5211 12.2607 11.0967C12.0663 11.6411 11.7864 12.1428 11.421 12.6017ZM10.243 12.17C10.6085 11.7967 10.8923 11.3689 11.0944 10.8867C11.2966 10.3889 11.3976 9.86778 11.3976 9.32333C11.3976 8.58444 11.211 7.89611 10.8378 7.25833C10.4802 6.64389 9.99424 6.15778 9.38001 5.8C8.74246 5.42667 8.05438 5.24 7.31575 5.24C6.57713 5.24 5.88904 5.42667 5.25149 5.8C4.63726 6.15778 4.15133 6.64389 3.79368 7.25833C3.42048 7.89611 3.23388 8.58444 3.23388 9.32333C3.23388 10.0622 3.42048 10.7506 3.79368 11.3883C4.15133 12.0028 4.63726 12.4889 5.25149 12.8467C5.88904 13.22 6.57713 13.4067 7.31575 13.4067C7.86 13.4067 8.38093 13.3056 8.87853 13.1033C9.36058 12.9011 9.7882 12.6172 10.1614 12.2517L10.243 12.17Z" fill="#9CA3AF"/>
</svg>
