<svg width="40" height="34" viewBox="0 0 40 34" fill="none" xmlns="http://www.w3.org/2000/svg">
<path d="M8.92805 17.208C9.13605 17.208 9.29605 17.304 9.40805 17.496C9.53605 17.688 9.60005 17.952 9.60005 18.288C9.60005 18.928 9.44805 19.424 9.14405 19.776C8.45605 20.624 7.70405 21.32 6.88805 21.864C6.08805 22.408 5.17605 22.68 4.15205 22.68C2.74405 22.68 1.69605 22.04 1.00805 20.76C0.336054 19.48 5.37932e-05 17.824 5.37932e-05 15.792C5.37932e-05 13.84 0.248054 11.616 0.744054 9.12C1.25605 6.624 2.00005 4.48 2.97605 2.688C3.96805 0.896 5.14405 0 6.50405 0C7.27205 0 7.87205 0.36 8.30405 1.08C8.75205 1.784 8.97605 2.8 8.97605 4.128C8.97605 6.032 8.44805 8.24 7.39205 10.752C6.33605 13.264 4.90405 15.752 3.09605 18.216C3.20805 18.872 3.39205 19.344 3.64805 19.632C3.90405 19.904 4.24005 20.04 4.65605 20.04C5.31205 20.04 5.88805 19.856 6.38405 19.488C6.88005 19.104 7.51205 18.456 8.28005 17.544C8.47205 17.32 8.68805 17.208 8.92805 17.208ZM5.97605 2.376C5.60805 2.376 5.19205 3.04 4.72805 4.368C4.26405 5.696 3.85605 7.344 3.50405 9.312C3.15205 11.28 2.96005 13.168 2.92805 14.976C4.06405 13.104 4.96805 11.232 5.64005 9.36C6.31205 7.472 6.64805 5.752 6.64805 4.2C6.64805 2.984 6.42405 2.376 5.97605 2.376ZM19.9002 15.192C20.1082 15.192 20.2682 15.296 20.3802 15.504C20.4922 15.712 20.5482 15.976 20.5482 16.296C20.5482 17.064 20.3162 17.52 19.8522 17.664C18.8922 18 17.8362 18.192 16.6842 18.24C16.3802 19.584 15.7802 20.664 14.8842 21.48C13.9882 22.28 12.9722 22.68 11.8362 22.68C10.8762 22.68 10.0522 22.448 9.36418 21.984C8.69218 21.52 8.18018 20.904 7.82818 20.136C7.47618 19.368 7.30018 18.536 7.30018 17.64C7.30018 16.424 7.53218 15.344 7.99618 14.4C8.46018 13.44 9.10018 12.696 9.91618 12.168C10.7322 11.624 11.6362 11.352 12.6282 11.352C13.8442 11.352 14.8202 11.776 15.5562 12.624C16.3082 13.456 16.7482 14.488 16.8762 15.72C17.6282 15.672 18.5242 15.512 19.5642 15.24C19.6922 15.208 19.8042 15.192 19.9002 15.192ZM12.0282 20.136C12.5402 20.136 12.9802 19.928 13.3482 19.512C13.7322 19.096 13.9882 18.496 14.1162 17.712C13.6202 17.376 13.2362 16.936 12.9642 16.392C12.7082 15.848 12.5802 15.272 12.5802 14.664C12.5802 14.408 12.6042 14.152 12.6522 13.896H12.5322C11.8922 13.896 11.3562 14.208 10.9242 14.832C10.5082 15.44 10.3002 16.304 10.3002 17.424C10.3002 18.304 10.4682 18.976 10.8042 19.44C11.1562 19.904 11.5642 20.136 12.0282 20.136ZM30.7763 17.256C30.9843 17.256 31.1443 17.36 31.2563 17.568C31.3843 17.76 31.4483 18.008 31.4483 18.312C31.4483 18.68 31.3923 18.968 31.2803 19.176C31.1683 19.384 30.9923 19.568 30.7523 19.728C29.3763 20.656 28.3683 21.344 27.7283 21.792L26.1923 22.824C25.5843 26.136 24.7843 28.736 23.7923 30.624C22.8163 32.528 21.5683 33.48 20.0483 33.48C19.2323 33.48 18.5683 33.224 18.0563 32.712C17.5443 32.216 17.2883 31.56 17.2883 30.744C17.2883 29.608 17.7363 28.384 18.6323 27.072C19.5283 25.776 21.2083 24.176 23.6723 22.272L23.8163 21.336C23.5443 21.768 23.1843 22.104 22.7363 22.344C22.3043 22.568 21.8723 22.68 21.4403 22.68C20.4483 22.68 19.6563 22.32 19.0643 21.6C18.4723 20.88 18.1763 19.936 18.1763 18.768C18.1763 17.488 18.4723 16.28 19.0643 15.144C19.6563 13.992 20.4403 13.072 21.4163 12.384C22.4083 11.68 23.4563 11.328 24.5603 11.328C24.9123 11.328 25.1443 11.4 25.2563 11.544C25.3843 11.672 25.4883 11.912 25.5683 12.264C25.8723 12.2 26.2243 12.168 26.6243 12.168C27.0243 12.168 27.3043 12.232 27.4643 12.36C27.6403 12.472 27.7283 12.704 27.7283 13.056C27.7283 13.248 27.7203 13.4 27.7043 13.512C27.6403 14.008 27.4403 15.264 27.1043 17.28C27.0403 17.664 26.9683 18.088 26.8883 18.552C26.8243 19 26.7523 19.48 26.6723 19.992C27.9043 19.032 29.0883 18.184 30.2243 17.448C30.4323 17.32 30.6163 17.256 30.7763 17.256ZM22.3043 20.256C22.6723 20.256 23.0243 20.032 23.3603 19.584C23.6963 19.136 23.9363 18.496 24.0803 17.664L24.8483 13.56C24.1923 13.576 23.5843 13.832 23.0243 14.328C22.4643 14.808 22.0163 15.448 21.6803 16.248C21.3443 17.048 21.1763 17.896 21.1763 18.792C21.1763 19.288 21.2723 19.656 21.4643 19.896C21.6723 20.136 21.9523 20.256 22.3043 20.256ZM20.3123 31.152C20.7123 31.152 21.1603 30.672 21.6563 29.712C22.1683 28.752 22.6563 27.224 23.1203 25.128C21.8883 26.184 21.0003 27.136 20.4563 27.984C19.9123 28.832 19.6403 29.576 19.6403 30.216C19.6403 30.488 19.6883 30.712 19.7843 30.888C19.8963 31.064 20.0723 31.152 20.3123 31.152ZM34.0287 22.68C33.0847 22.68 32.2767 22.448 31.6047 21.984C30.9487 21.504 30.4527 20.88 30.1167 20.112C29.7807 19.344 29.6127 18.52 29.6127 17.64C29.6127 16.424 29.8367 15.344 30.2847 14.4C30.7487 13.44 31.3727 12.696 32.1567 12.168C32.9407 11.624 33.8207 11.352 34.7967 11.352C35.7407 11.352 36.5487 11.592 37.2207 12.072C37.8927 12.536 38.3967 13.152 38.7327 13.92C39.0687 14.688 39.2367 15.512 39.2367 16.392C39.2367 17.608 39.0047 18.696 38.5407 19.656C38.0767 20.6 37.4447 21.344 36.6447 21.888C35.8607 22.416 34.9887 22.68 34.0287 22.68ZM34.2927 20.088C34.8367 20.088 35.2927 19.792 35.6607 19.2C36.0447 18.608 36.2367 17.744 36.2367 16.608C36.2367 15.728 36.0767 15.064 35.7567 14.616C35.4367 14.168 35.0527 13.944 34.6047 13.944C34.0287 13.944 33.5487 14.24 33.1647 14.832C32.7967 15.408 32.6127 16.272 32.6127 17.424C32.6127 18.336 32.7727 19.008 33.0927 19.44C33.4127 19.872 33.8127 20.088 34.2927 20.088Z" fill="#3B82F6"/>
</svg>
